<svg xmlns="http://www.w3.org/2000/svg" width="60" height="59" fill="none"><g clip-path="url(#a)"><path fill="#E14400" d="M30 59C13.462 59 0 45.762 0 29.5S13.463 0 30 0c16.538 0 30 13.238 30 29.5S46.538 59 30 59Zm25.3-25.463c-.875-.27-7.925-2.343-15.96-1.077 3.35 9.056 4.717 16.431 4.98 17.965 5.75-3.822 9.84-9.882 10.987-16.888H55.3ZM40.013 52.73c-.383-2.212-1.875-9.912-5.475-19.101l-.165.05c-14.475 4.953-19.65 14.81-20.1 15.733 4.325 3.338 9.8 5.324 15.724 5.324 3.55 0 6.925-.713 10-2l.016-.006Zm-29.05-6.342c.58-.984 7.612-12.427 20.83-16.63.337-.111.675-.207 1.012-.296a88.896 88.896 0 0 0-2.08-4.277c-12.8 3.76-25.21 3.601-26.335 3.576l-.01.767c0 6.473 2.495 12.383 6.585 16.852l-.002.008Zm-6.05-22.015c1.15.02 11.707.064 23.692-3.068-4.245-7.419-8.825-13.663-9.5-14.573-7.17 3.32-12.525 9.81-14.19 17.627l-.003.014ZM24 5.044c.705.935 5.363 7.164 9.555 14.75 9.112-3.355 12.975-8.456 13.432-9.1A25.72 25.72 0 0 0 30 4.336c-2.063 0-4.075.246-6 .701v.008Zm25.837 8.563c-.545.713-4.837 6.128-14.31 9.931a68.181 68.181 0 0 1 1.7 3.654c.2.442.376.885.55 1.302 8.526-1.056 17 .64 17.85.812-.05-5.95-2.2-11.407-5.775-15.684l-.014-.015Z"/></g><defs><clipPath id="a"><path fill="#fff" d="M0 0h60v59H0z"/></clipPath></defs></svg>