<svg xmlns="http://www.w3.org/2000/svg" width="59" height="59" fill="none"><g clip-path="url(#a)"><path fill="#E14400" d="M29.5 0c-8.014 0-9.015.037-12.161.177-3.142.148-5.28.642-7.161 1.372C8.238 2.3 6.59 3.31 4.95 4.95 3.311 6.591 2.3 8.235 1.55 10.178c-.73 1.88-1.227 4.019-1.372 7.16C.03 20.486 0 21.487 0 29.5c0 8.014.037 9.015.177 12.161.148 3.14.642 5.28 1.372 7.161C2.3 50.76 3.31 52.41 4.95 54.05c1.64 1.637 3.284 2.653 5.227 3.402 1.883.728 4.021 1.227 7.16 1.372 3.147.148 4.148.177 12.162.177 8.014 0 9.015-.037 12.161-.177 3.14-.148 5.28-.644 7.161-1.372 1.938-.752 3.587-1.765 5.227-3.402 1.637-1.64 2.653-3.282 3.402-5.227.728-1.88 1.227-4.021 1.372-7.16.148-3.147.177-4.148.177-12.162 0-8.014-.037-9.015-.177-12.161-.148-3.14-.644-5.283-1.372-7.161-.752-1.94-1.765-3.587-3.402-5.227-1.64-1.64-3.282-2.652-5.227-3.402-1.88-.73-4.021-1.227-7.16-1.372C38.514.03 37.513 0 29.5 0Zm0 5.31c7.874 0 8.813.04 11.923.175 2.876.135 4.437.612 5.475 1.02 1.381.533 2.36 1.172 3.397 2.202 1.03 1.033 1.67 2.014 2.203 3.395.403 1.038.885 2.599 1.015 5.475.14 3.112.172 4.046.172 11.923s-.037 8.813-.182 11.923c-.15 2.876-.63 4.437-1.035 5.475-.55 1.381-1.177 2.36-2.21 3.397-1.03 1.03-2.026 1.67-3.392 2.203-1.033.403-2.618.885-5.495 1.015-3.132.14-4.053.172-11.945.172-7.893 0-8.815-.037-11.945-.182-2.879-.15-4.464-.63-5.497-1.035-1.398-.55-2.36-1.177-3.39-2.21-1.035-1.03-1.696-2.026-2.212-3.392-.406-1.033-.883-2.618-1.033-5.495-.11-3.097-.15-4.053-.15-11.908 0-7.857.04-8.816.15-11.95.15-2.876.627-4.46 1.033-5.492.516-1.401 1.177-2.36 2.212-3.395 1.03-1.03 1.992-1.693 3.39-2.207 1.033-.408 2.584-.888 5.46-1.035 3.135-.11 4.057-.148 11.945-.148l.111.074Zm0 9.042c-8.37 0-15.148 6.785-15.148 15.148 0 8.37 6.785 15.148 15.148 15.148 8.37 0 15.148-6.785 15.148-15.148 0-8.37-6.785-15.148-15.148-15.148Zm0 24.981a9.83 9.83 0 0 1-9.833-9.833 9.83 9.83 0 0 1 9.833-9.833 9.83 9.83 0 0 1 9.833 9.833 9.83 9.83 0 0 1-9.833 9.833Zm19.288-25.579a3.543 3.543 0 0 1-3.54 3.54 3.542 3.542 0 0 1-3.54-3.54 3.542 3.542 0 0 1 3.54-3.537 3.542 3.542 0 0 1 3.54 3.537Z"/></g><defs><clipPath id="a"><path fill="#fff" d="M0 0h59v59H0z"/></clipPath></defs></svg>