<svg xmlns="http://www.w3.org/2000/svg" width="59" height="59" fill="none"><g clip-path="url(#a)"><path fill="#E14400" d="M50.266 50.278h-8.737v-13.69c0-3.265-.067-7.467-4.553-7.467-4.556 0-5.251 3.553-5.251 7.226v13.93h-8.737V22.126h8.393v3.837h.113c1.172-2.212 4.024-4.547 8.284-4.547 8.853 0 10.49 5.826 10.49 13.41v15.453h-.002ZM13.12 18.273a5.069 5.069 0 0 1-5.071-5.077 5.068 5.068 0 0 1 5.071-5.071 5.075 5.075 0 0 1 5.074 5.071c0 2.8-2.274 5.077-5.074 5.077Zm4.38 32.005H8.74V22.125h8.76v28.153ZM54.637 0H4.355C1.947 0 0 1.903 0 4.25v50.5C0 57.1 1.947 59 4.354 59h50.275C57.033 59 59 57.1 59 54.75V4.25C59 1.903 57.033 0 54.63 0h.006Z"/></g><defs><clipPath id="a"><path fill="#fff" d="M0 0h59v59H0z"/></clipPath></defs></svg>