<svg xmlns="http://www.w3.org/2000/svg" width="59" height="59" fill="none"><g clip-path="url(#a)"><path fill="#E14400" d="M58.887 11.232a24.585 24.585 0 0 1-6.945 1.905 12.189 12.189 0 0 0 5.318-6.694 24.985 24.985 0 0 1-7.688 2.91 12.045 12.045 0 0 0-8.828-3.832c-6.679 0-12.095 5.416-12.095 12.088 0 .959.111 1.88.313 2.763-10.055-.474-18.966-5.303-24.93-12.601-1.05 1.775-1.638 3.837-1.638 6.084 0 4.204 2.14 7.899 5.38 10.07a12.056 12.056 0 0 1-5.478-1.515v.15c0 5.863 4.162 10.753 9.7 11.866a12.198 12.198 0 0 1-5.438.209c1.552 4.802 6.011 8.302 11.319 8.4a24.258 24.258 0 0 1-15 5.175c-.96 0-1.916-.056-2.877-.164 5.381 3.426 11.721 5.43 18.578 5.43 22.257 0 34.414-18.428 34.414-34.382 0-.514 0-1.033-.037-1.549a24.426 24.426 0 0 0 6.047-6.264l-.115-.049Z"/></g><defs><clipPath id="a"><path fill="#fff" d="M0 0h59v59H0z"/></clipPath></defs></svg>