<svg xmlns="http://www.w3.org/2000/svg" width="59" height="59" fill="none"><path fill="#E14400" d="M57.758 15.254a7.392 7.392 0 0 0-5.133-5.133c-4.597-1.232-23.098-1.232-23.098-1.232s-18.455-.024-23.099 1.232a7.393 7.393 0 0 0-5.132 5.133 76.816 76.816 0 0 0-1.284 14.27 76.815 76.815 0 0 0 1.284 14.217 7.393 7.393 0 0 0 5.132 5.133c4.593 1.234 23.099 1.234 23.099 1.234s18.452 0 23.099-1.234a7.392 7.392 0 0 0 5.133-5.133c.85-4.69 1.26-9.45 1.229-14.216a76.82 76.82 0 0 0-1.23-14.271ZM23.622 38.352V20.67l15.4 8.855-15.4 8.827Z"/></svg>